<svg xmlns="http://www.w3.org/2000/svg" height="511pt" version="1.1" viewBox="0 0 511 511.99961" width="511pt">
<g id="surface1">
<path d="M 366.269531 142.007812 C 369.757812 156.277344 371.507812 170.917969 371.476562 185.605469 C 371.550781 246.007812 342.085938 302.628906 292.578125 337.226562 C 282.957031 344.097656 272.667969 349.980469 261.863281 354.789062 C 245.636719 362.101562 228.417969 366.976562 210.765625 369.261719 C 223.203125 394.984375 242.3125 416.894531 266.101562 432.71875 C 275.917969 439.292969 286.460938 444.714844 297.519531 448.867188 C 315.496094 455.738281 334.582031 459.238281 353.828125 459.195312 C 441.558594 458.914062 512.457031 387.566406 512.175781 299.832031 C 511.914062 217.3125 448.515625 148.734375 366.269531 142.007812 Z M 287.636719 414.976562 L 305.285156 384.40625 Z M 468.46875 234.144531 L 437.894531 251.796875 Z M 402.367188 384.40625 L 420.015625 414.976562 Z M 402.367188 216.265625 L 420.015625 185.691406 Z M 437.898438 348.875 L 468.46875 366.527344 Z M 437.898438 348.875 " style=" stroke:none;fill-rule:nonzero;fill:rgb(100%,76.862745%,46.666667%);fill-opacity:1;" />
<path d="M 210.765625 369.261719 C 202.609375 370.402344 194.378906 370.964844 186.140625 370.941406 C 153.253906 371.015625 120.949219 362.269531 92.59375 345.609375 C 64.078125 402.199219 86.839844 471.1875 143.429688 499.703125 C 200.015625 528.214844 269.007812 505.457031 297.519531 448.867188 C 286.457031 444.714844 275.917969 439.292969 266.101562 432.71875 C 242.3125 416.894531 223.203125 394.980469 210.765625 369.261719 Z M 194.96875 476.84375 C 151.128906 476.777344 115.605469 441.253906 115.539062 397.414062 C 115.546875 441.285156 151.113281 476.839844 194.980469 476.832031 C 207.222656 476.832031 219.300781 474 230.269531 468.558594 C 219.304688 474.023438 207.21875 476.859375 194.96875 476.84375 Z M 194.96875 476.84375 " style=" stroke:none;fill-rule:nonzero;fill:rgb(100%,85.490196%,66.666667%);fill-opacity:1;" />
<path d="M 186.140625 344.464844 C 203.167969 344.496094 220.085938 341.753906 236.226562 336.335938 C 249.773438 331.867188 262.636719 325.546875 274.449219 317.554688 C 347.375 268.777344 366.949219 170.117188 318.175781 97.191406 C 269.398438 24.265625 170.738281 4.691406 97.8125 53.46875 C 24.886719 102.246094 5.308594 200.902344 54.085938 273.828125 C 68.148438 294.847656 87.023438 312.210938 109.140625 324.464844 C 132.699219 337.546875 159.195312 344.429688 186.140625 344.464844 Z M 144.089844 134.207031 L 186.144531 92.164062 L 186.144531 279.050781 L 186.144531 92.164062 Z M 144.089844 134.207031 " style=" stroke:none;fill-rule:nonzero;fill:rgb(100%,71.372549%,33.333333%);fill-opacity:1;" />
<path d="M 186.140625 370.941406 C 194.378906 370.964844 202.609375 370.402344 210.765625 369.261719 C 228.417969 366.976562 245.636719 362.101562 261.863281 354.789062 C 272.667969 349.980469 282.957031 344.097656 292.578125 337.226562 C 342.085938 302.628906 371.550781 246.007812 371.476562 185.605469 C 371.507812 170.917969 369.757812 156.277344 366.269531 142.007812 C 342.253906 42.441406 242.074219 -18.800781 142.507812 5.210938 C 42.941406 29.226562 -18.300781 129.410156 5.710938 228.972656 C 25.8125 312.3125 100.414062 371.007812 186.140625 370.941406 Z M 36.109375 185.605469 C 36.054688 102.746094 103.183594 35.527344 186.042969 35.472656 C 268.902344 35.414062 336.121094 102.542969 336.175781 185.402344 C 336.207031 235.527344 311.210938 282.355469 269.542969 310.21875 C 258.386719 317.769531 246.238281 323.738281 233.449219 327.957031 C 218.203125 333.078125 202.222656 335.671875 186.144531 335.636719 C 160.695312 335.597656 135.671875 329.101562 113.421875 316.75 C 65.761719 290.300781 36.175781 240.109375 36.109375 185.605469 Z M 36.109375 185.605469 " style=" stroke:none;fill-rule:nonzero;fill:rgb(100%,65.490196%,20%);fill-opacity:1;" />
<path d="M 194.96875 485.671875 C 146.25 485.617188 106.769531 446.136719 106.714844 397.414062 L 124.363281 397.414062 C 124.410156 436.390625 155.992188 467.976562 194.96875 468.019531 C 205.859375 468.046875 216.609375 465.527344 226.351562 460.660156 L 234.222656 476.457031 C 222.039062 482.550781 208.59375 485.707031 194.96875 485.671875 Z M 194.96875 485.671875 " style=" stroke:none;fill-rule:nonzero;fill:rgb(94.509804%,94.901961%,94.901961%);fill-opacity:1;" />
<path d="M 345 397.414062 L 362.652344 397.414062 L 362.652344 432.71875 L 345 432.71875 Z M 345 397.414062 " style=" stroke:none;fill-rule:nonzero;fill:rgb(94.509804%,94.901961%,94.901961%);fill-opacity:1;" />
<path d="M 280 410.558594 L 297.644531 379.980469 L 312.933594 388.804688 L 295.285156 419.378906 Z M 280 410.558594 " style=" stroke:none;fill-rule:nonzero;fill:rgb(94.509804%,94.901961%,94.901961%);fill-opacity:1;" />
<path d="M 394.707031 388.824219 L 409.992188 379.996094 L 427.644531 410.570312 L 412.355469 419.394531 Z M 394.707031 388.824219 " style=" stroke:none;fill-rule:nonzero;fill:rgb(94.509804%,94.901961%,94.901961%);fill-opacity:1;" />
<path d="M 433.46875 356.515625 L 442.292969 341.230469 L 472.863281 358.878906 L 464.039062 374.164062 Z M 433.46875 356.515625 " style=" stroke:none;fill-rule:nonzero;fill:rgb(94.509804%,94.901961%,94.901961%);fill-opacity:1;" />
<path d="M 450.90625 291.511719 L 486.207031 291.511719 L 486.207031 309.160156 L 450.90625 309.160156 Z M 450.90625 291.511719 " style=" stroke:none;fill-rule:nonzero;fill:rgb(94.509804%,94.901961%,94.901961%);fill-opacity:1;" />
<path d="M 433.488281 244.171875 L 464.0625 226.523438 L 472.886719 241.8125 L 442.3125 259.457031 Z M 433.488281 244.171875 " style=" stroke:none;fill-rule:nonzero;fill:rgb(94.509804%,94.901961%,94.901961%);fill-opacity:1;" />
<path d="M 394.726562 211.835938 L 412.371094 181.261719 L 427.660156 190.082031 L 410.011719 220.660156 Z M 394.726562 211.835938 " style=" stroke:none;fill-rule:nonzero;fill:rgb(94.509804%,94.901961%,94.901961%);fill-opacity:1;" />
<path d="M 186.140625 282.683594 C 181.269531 282.683594 177.316406 278.734375 177.316406 273.859375 L 177.316406 118.65625 L 152.667969 143.304688 C 149.160156 146.691406 143.574219 146.59375 140.1875 143.089844 C 136.886719 139.667969 136.886719 134.246094 140.1875 130.828125 L 179.902344 91.113281 C 183.351562 87.667969 188.9375 87.667969 192.382812 91.113281 C 194.039062 92.769531 194.96875 95.011719 194.96875 97.351562 L 194.96875 273.859375 C 194.96875 278.734375 191.015625 282.683594 186.140625 282.683594 Z M 186.140625 282.683594 " style=" stroke:none;fill-rule:nonzero;fill:rgb(100%,31.372549%,13.72549%);fill-opacity:1;" />
<path d="M 221.445312 282.683594 L 150.839844 282.683594 C 145.96875 282.683594 142.015625 278.734375 142.015625 273.859375 C 142.015625 268.984375 145.96875 265.035156 150.839844 265.035156 L 221.445312 265.035156 C 226.320312 265.035156 230.269531 268.984375 230.269531 273.859375 C 230.269531 278.734375 226.320312 282.683594 221.445312 282.683594 Z M 221.445312 282.683594 " style=" stroke:none;fill-rule:nonzero;fill:rgb(100%,31.372549%,13.72549%);fill-opacity:1;" />
</g>
</svg>