<svg width="1178" height="726" viewBox="0 0 1178 726" fill="none" xmlns="http://www.w3.org/2000/svg">
<g clip-path="url(#clip0)">
<g filter="url(#filter0_d)">
<path d="M1178 465.662C1178.02 485.307 1175.65 504.88 1170.93 523.949C1169.34 530.367 1167.5 536.659 1165.4 542.824C1162.82 550.424 1159.85 557.881 1156.48 565.162C1154.78 568.838 1152.98 572.448 1151.09 575.99C1151.12 596.135 1146.97 616.067 1138.91 634.527C1124.34 667.644 1098.37 694.423 1065.72 709.988C1045.29 719.743 1022.95 724.869 1000.31 725H223.64C189.082 725.077 155.12 715.995 125.207 698.679C120.786 696.116 116.479 693.388 112.285 690.492C103.179 684.197 94.6239 677.139 86.7118 669.395C76.0002 658.911 66.5636 647.197 58.598 634.497C39.8833 604.762 29.9693 570.329 30.0041 535.188C11.0515 501.911 0 462.049 0 419.215C0 365.172 17.5624 315.873 46.4163 278.553C52.4318 270.756 59.021 263.42 66.129 256.605C73.1423 249.862 80.6804 243.688 88.672 238.141C95.0636 233.694 101.746 229.682 108.675 226.131C111.565 224.65 114.466 223.269 117.416 221.978C120.006 220.827 122.627 219.756 125.277 218.745C128.457 217.531 131.678 216.42 134.938 215.412C138.199 214.405 141.416 213.518 144.59 212.75C149.257 211.609 154.004 210.682 158.832 209.968C162.832 209.378 166.833 208.967 170.833 208.647C174.014 208.42 177.221 208.287 180.454 208.247H182.205C185.765 208.247 189.306 208.387 192.816 208.627C193.186 207.886 193.586 207.136 193.956 206.395C195.356 203.733 196.807 201.071 198.267 198.459V198.389C198.517 197.939 198.767 197.488 199.027 197.048C200.207 194.916 201.437 192.804 202.698 190.713C203.278 189.712 203.848 188.771 204.438 187.82C204.568 187.59 204.698 187.37 204.848 187.14C205.448 186.139 206.058 185.138 206.678 184.137C209.765 179.207 212.976 174.353 216.309 169.576C216.599 169.166 216.869 168.765 217.159 168.365C217.68 167.624 218.16 166.894 218.74 166.163C220.12 164.232 221.54 162.29 222.97 160.379C223.97 159.027 224.971 157.676 226.051 156.375C228.651 153.013 231.321 149.67 234.052 146.367C236.782 143.065 239.663 139.742 242.573 136.489C242.973 136.039 243.373 135.599 243.793 135.148L248.064 130.495C248.274 130.274 248.454 130.074 248.654 129.874C249.164 129.324 249.654 128.773 250.204 128.233C252.494 125.811 254.845 123.419 257.205 121.057C269.261 109.07 282.105 97.9027 295.65 87.6304C296.18 87.2101 296.72 86.8097 297.25 86.4094C299.791 84.4879 302.371 82.5964 304.951 80.7349C319.147 70.5498 333.983 61.2899 349.367 53.0128C350.428 52.4123 351.508 51.8418 352.598 51.2714C366.394 43.9727 380.581 37.4377 395.094 31.6957C403.001 28.5666 411.049 25.6442 419.237 22.9287C424.658 21.1573 430.098 19.466 435.609 17.9247C444.13 15.4761 452.758 13.2677 461.493 11.2994C487.225 5.52167 513.404 1.95253 539.743 0.630909C547.744 0.210573 555.835 0.00040783 564.017 0.00040783C603.492 -0.0518879 642.813 4.9254 681.032 14.8122C681.427 15.4098 681.968 15.897 682.603 16.2279C683.238 16.5588 683.947 16.7225 684.663 16.7037H688.023C689.484 17.0941 690.934 17.5044 692.394 17.9247C700.548 20.2799 708.586 22.8453 716.507 25.6209L718.507 26.3414C738.058 33.2978 757.08 41.6596 775.425 51.3614C791.96 60.0896 807.882 69.9335 823.082 80.825C825.422 82.5063 827.729 84.2043 830.003 85.919C832.763 84.1376 835.57 82.4396 838.424 80.825C849.445 74.5475 861.15 69.5575 873.308 65.9531C898.73 58.4253 925.628 57.3726 951.559 62.8906C984.814 69.9463 1014.92 87.4603 1039.23 112.37C1049.14 122.529 1057.96 133.691 1065.55 145.677C1066.1 146.537 1066.65 147.408 1067.18 148.289C1073.7 158.933 1079.3 170.112 1083.93 181.706C1084.1 182.126 1084.27 182.536 1084.42 182.957C1088.69 193.806 1092.13 204.964 1094.72 216.333C1094.84 216.904 1094.98 217.484 1095.1 218.065C1097.52 229.068 1099.16 240.227 1100.02 251.461C1100.02 251.862 1100.02 252.272 1100.1 252.682C1100.52 258.494 1100.73 264.368 1100.74 270.306C1100.74 275.611 1100.56 280.875 1100.23 286.089C1100.23 286.659 1100.15 287.26 1100.1 287.84C1100.01 289.362 1099.88 290.843 1099.75 292.374C1107.39 298.536 1114.54 305.282 1121.13 312.55C1124.05 315.733 1126.87 319.039 1129.59 322.468C1137.9 332.884 1145.2 344.066 1151.4 355.865C1168.28 387.87 1178 425.44 1178 465.662Z" fill="url(#paint0_linear)"/>
</g>
</g>
<defs>
<filter id="filter0_d" x="-4" y="0" width="1186" height="733" filterUnits="userSpaceOnUse" color-interpolation-filters="sRGB">
<feFlood flood-opacity="0" result="BackgroundImageFix"/>
<feColorMatrix in="SourceAlpha" type="matrix" values="0 0 0 0 0 0 0 0 0 0 0 0 0 0 0 0 0 0 127 0"/>
<feOffset dy="4"/>
<feGaussianBlur stdDeviation="2"/>
<feColorMatrix type="matrix" values="0 0 0 0 0 0 0 0 0 0 0 0 0 0 0 0 0 0 0.25 0"/>
<feBlend mode="normal" in2="BackgroundImageFix" result="effect1_dropShadow"/>
<feBlend mode="normal" in="SourceGraphic" in2="effect1_dropShadow" result="shape"/>
</filter>
<linearGradient id="paint0_linear" x1="682.113" y1="-0.0196079" x2="676.104" y2="724.559" gradientUnits="userSpaceOnUse">
<stop stop-color="#B59283" stop-opacity="0.92"/>
<stop offset="1" stop-color="#FDE9CC"/>
</linearGradient>
<clipPath id="clip0">
<rect width="1177.82" height="725.16" fill="white"/>
</clipPath>
</defs>
</svg>
