<?xml version="1.0" encoding="iso-8859-1"?>
<!-- Generator: Adobe Illustrator 19.0.0, SVG Export Plug-In . SVG Version: 6.00 Build 0)  -->
<svg version="1.1" id="Capa_1" xmlns="http://www.w3.org/2000/svg" xmlns:xlink="http://www.w3.org/1999/xlink" x="0px" y="0px"
	 viewBox="0 0 512.001 512.001" style="enable-background:new 0 0 512.001 512.001;" xml:space="preserve">
<path style="fill:#20A18C;" d="M275.858,359.208l-9.754-22.219V175.011l9.754-22.22c4.269-9.726,2.116-20.805-5.485-28.224
	s-18.729-9.304-28.347-4.8l-19.527,9.14H55.524l-19.526-9.14c-9.62-4.503-20.747-2.618-28.348,4.8
	c-7.602,7.42-9.754,18.499-5.484,28.225l9.754,22.219v161.978l-9.754,22.219c-4.27,9.726-2.117,20.805,5.484,28.225
	c4.856,4.739,11.149,7.221,17.571,7.22c3.63,0,7.303-0.793,10.776-2.42l19.527-9.14h166.975l19.526,9.14
	c9.622,4.505,20.748,2.62,28.348-4.8C277.974,380.013,280.127,368.934,275.858,359.208L275.858,359.208z"/>
<path style="fill:#257987;" d="M500.081,336.989V175.011l9.754-22.219c4.27-9.726,2.117-20.805-5.484-28.225
	c-7.601-7.419-18.729-9.304-28.347-4.8l-19.527,9.14H289.502l-19.526-9.14c-9.62-4.503-20.747-2.62-28.348,4.8
	c-7.601,7.419-9.754,18.498-5.485,28.225l9.754,22.219v161.978l-9.754,22.22c-4.269,9.726-2.116,20.805,5.485,28.224
	c4.855,4.739,11.149,7.22,17.57,7.22c3.631,0,7.302-0.793,10.776-2.42l19.527-9.14h166.975l19.526,9.14
	c9.621,4.505,20.748,2.619,28.348-4.8c7.602-7.42,9.754-18.499,5.484-28.225L500.081,336.989z"/>
<path style="fill:#20A18C;" d="M426.916,369.883V142.119l14.062-32.033c4.947-11.271,2.453-24.107-6.354-32.705
	c-8.807-8.598-21.702-10.783-32.848-5.563l-28.342,13.267H138.568l-28.342-13.267c-11.148-5.218-24.041-3.033-32.848,5.563
	c-8.808,8.598-11.302,21.435-6.354,32.705l14.062,32.032v227.764l-14.062,32.033c-4.947,11.271-2.453,24.107,6.354,32.705
	c8.808,8.598,21.702,10.782,32.848,5.563l28.344-13.267H373.43l28.344,13.267c4.026,1.885,8.28,2.804,12.487,2.804
	c7.44,0,14.735-2.875,20.361-8.366c8.807-8.598,11.301-21.435,6.354-32.705L426.916,369.883z M427.242,407.944L427.242,407.944
	L427.242,407.944L427.242,407.944z"/>
<path style="fill:#3ABE8D;" d="M256.001,85.086H138.568l-28.342-13.267c-11.148-5.218-24.041-3.033-32.848,5.563
	c-8.808,8.598-11.302,21.435-6.354,32.705l14.062,32.032v227.764l-14.062,32.033c-4.947,11.271-2.453,24.107,6.354,32.705
	c8.808,8.598,21.702,10.782,32.848,5.563l28.344-13.267H256V85.086H256.001z"/>
<path style="fill:#1D6E67;" d="M396.615,199.536l-37.849-28.503c-5.342-4.023-12.704-4.023-18.047,0l-37.848,28.503l-37.849-28.503
	c-5.343-4.023-12.704-4.023-18.047,0l-37.849,28.503l-37.848-28.503c-5.343-4.023-12.705-4.023-18.047,0l-37.849,28.503
	l-30.3-22.819v37.556l21.277,16.023c5.342,4.023,12.704,4.023,18.047,0l37.849-28.503l37.848,28.503
	c5.343,4.023,12.704,4.023,18.047,0L256,201.793l37.849,28.503c5.343,4.023,12.705,4.023,18.047,0l37.848-28.503l37.849,28.503
	c2.671,2.012,5.848,3.018,9.023,3.018c3.176,0,6.352-1.006,9.023-3.018l21.277-16.023v-37.556L396.615,199.536z"/>
<path style="fill:#257987;" d="M256.001,168.015c-3.176,0-6.352,1.006-9.024,3.018l-37.849,28.503l-37.848-28.503
	c-5.343-4.023-12.705-4.023-18.047,0l-37.849,28.503l-30.3-22.819v37.556l21.277,16.023c5.342,4.023,12.704,4.023,18.047,0
	l37.849-28.503l37.848,28.503c5.343,4.023,12.704,4.023,18.047,0l37.849-28.503V168.015z"/>
<path style="fill:#1D6E67;" d="M396.615,310.208l-37.849-28.503c-5.342-4.023-12.704-4.023-18.047,0l-37.848,28.503l-37.849-28.503
	c-5.343-4.023-12.704-4.023-18.047,0l-37.849,28.503l-37.848-28.503c-5.343-4.023-12.705-4.023-18.047,0l-37.849,28.503
	l-30.3-22.819v37.556l21.277,16.023c5.342,4.023,12.704,4.023,18.047,0l37.849-28.503l37.848,28.503
	c5.343,4.023,12.704,4.023,18.047,0L256,312.465l37.849,28.503c5.343,4.023,12.705,4.023,18.047,0l37.848-28.503l37.849,28.503
	c2.671,2.012,5.848,3.018,9.023,3.018c3.176,0,6.352-1.006,9.023-3.018l21.277-16.023v-37.556L396.615,310.208z"/>
<path style="fill:#257987;" d="M256.001,278.687c-3.176,0-6.352,1.006-9.024,3.018l-37.849,28.503l-37.848-28.503
	c-5.343-4.023-12.705-4.023-18.047,0l-37.849,28.503l-30.3-22.819v37.556l21.277,16.023c5.342,4.023,12.704,4.023,18.047,0
	l37.849-28.503l37.848,28.503c5.343,4.023,12.704,4.023,18.047,0l37.849-28.503V278.687z"/>
<g>
</g>
<g>
</g>
<g>
</g>
<g>
</g>
<g>
</g>
<g>
</g>
<g>
</g>
<g>
</g>
<g>
</g>
<g>
</g>
<g>
</g>
<g>
</g>
<g>
</g>
<g>
</g>
<g>
</g>
</svg>
