<?xml version="1.0" encoding="UTF-8" standalone="no"?>
<svg
   xmlns:osb="http://www.openswatchbook.org/uri/2009/osb"
   xmlns:dc="http://purl.org/dc/elements/1.1/"
   xmlns:cc="http://creativecommons.org/ns#"
   xmlns:rdf="http://www.w3.org/1999/02/22-rdf-syntax-ns#"
   xmlns:svg="http://www.w3.org/2000/svg"
   xmlns="http://www.w3.org/2000/svg"
   id="svg8"
   version="1.1"
   viewBox="0 0 210 297"
   height="297mm"
   width="210mm">
  <defs
     id="defs2">
    <linearGradient
       osb:paint="gradient"
       id="linearGradient5982">
      <stop
         id="stop5978"
         offset="0"
         style="stop-color:#a5c3ed;stop-opacity:1;" />
      <stop
         id="stop5980"
         offset="1"
         style="stop-color:#a5c3ed;stop-opacity:0;" />
    </linearGradient>
  </defs>
  <metadata
     id="metadata5">
    <rdf:RDF>
      <cc:Work
         rdf:about="">
        <dc:format>image/svg+xml</dc:format>
        <dc:type
           rdf:resource="http://purl.org/dc/dcmitype/StillImage" />
        <dc:title></dc:title>
      </cc:Work>
    </rdf:RDF>
  </metadata>
  <g
     style="display:inline"
     id="layer1">
    <path
       transform="matrix(1.1796677,0,0,1.2752921,-0.14454995,-17.290918)"
       id="path6452"
       d="m 95.439189,159.47968 c 14.804151,1.95283 32.821011,0.56692 47.702571,-10.79895 14.88156,-11.36588 26.56972,-32.60565 15.84422,-47.91806 C 148.26047,85.450268 115.15692,76.135961 89.64354,72.671141 64.130158,69.206321 46.23938,71.600157 33.514063,79.411638 20.788745,87.223119 13.229349,100.45206 9.0085416,109.46056 c -4.2208074,9.00849 -5.1027322,13.79608 -2.0787557,22.42704 3.0239765,8.63095 9.9531001,21.10338 19.0247521,24.25311 9.071652,3.14974 20.284861,-3.02382 31.686882,-3.46475 11.402022,-0.44094 22.993618,4.85088 37.797769,6.80372 z"
       style="fill:none;stroke:#000000;stroke-width:0.26458332px;stroke-linecap:butt;stroke-linejoin:miter;stroke-opacity:1" />
  </g>
</svg>
