<svg width="512" height="512" viewBox="0 0 512 512" fill="none" xmlns="http://www.w3.org/2000/svg">
<path d="M406.069 263.327C406.651 287.794 399.584 311.834 385.854 332.094C358.93 372.524 305.346 388.414 256 388.414C207.183 388.414 152.629 372.348 126.146 332.094C112.416 311.834 105.349 287.794 105.931 263.327C107.317 202.883 136.953 146.583 185.997 111.228C195.743 104.4 206.376 98.9354 217.6 94.9848C242.419 86.0395 269.581 86.0395 294.4 94.9848C305.624 98.9354 316.257 104.4 326.003 111.228C375.047 146.583 404.683 202.883 406.069 263.327Z" fill="url(#paint0_linear)"/>
<path d="M406.069 263.327C406.651 287.794 399.584 311.834 385.854 332.094C358.93 372.524 305.346 388.414 256 388.414C217.512 388.414 175.492 378.439 146.45 354.428C164.891 359.445 183.922 361.969 203.034 361.931C252.381 361.931 305.964 346.041 332.888 305.611C346.619 285.351 353.685 261.312 353.103 236.844C351.739 180.251 325.717 127.078 281.865 91.2773C286.102 92.3366 290.251 93.5724 294.4 94.9848C305.624 98.9354 316.257 104.4 326.003 111.228C375.047 146.584 404.683 202.883 406.069 263.327Z" fill="url(#paint1_linear)"/>
<path d="M340.833 71.8566L326.003 111.228C316.257 104.4 305.624 98.9354 294.4 94.9848L307.73 59.4097C309.927 53.8345 309.164 47.527 305.699 42.6372C302.657 38.0537 297.518 35.302 292.017 35.3103H219.983C214.482 35.302 209.343 38.0537 206.301 42.6372C202.836 47.527 202.073 53.8345 204.27 59.4097L217.6 94.9848C206.376 98.9354 195.743 104.4 185.997 111.228L171.167 71.8566C164.995 55.4027 167.27 36.9695 177.258 22.5103C186.922 8.42695 202.903 0.00726987 219.983 0H292.017C309.097 0.00726987 325.078 8.42695 334.742 22.5103C344.73 36.9695 347.005 55.4027 340.833 71.8566V71.8566Z" fill="#B59283"/>
<path d="M512 397.241C511.971 406.98 504.083 414.867 494.345 414.897C488.077 414.897 481.015 414.897 477.837 415.25C477.308 415.956 476.69 416.839 475.983 417.81C471.349 424.082 466.338 430.066 460.977 435.73C452.851 444.308 444.022 452.193 434.582 459.299C420.704 469.755 405.726 478.665 389.914 485.87C337.302 510.146 274.097 512 256 512C237.903 512 174.698 510.146 122.086 485.87C83.0676 467.95 56.32 447.559 40.3421 423.459C38.6045 420.682 36.7185 418 34.6924 415.426C29.03 414.894 23.3397 414.717 17.6552 414.897C7.90449 414.897 0 406.992 0 397.241C0 387.491 7.90449 379.586 17.6552 379.586C26.5285 379.186 35.418 379.838 44.1379 381.528C54.5545 384.088 60.5572 390.091 69.7379 403.95C77.1595 414.553 86.4292 423.733 97.1034 431.051C109.571 439.918 122.876 447.546 136.828 453.826C141.153 455.857 145.567 457.622 150.069 459.211C167.219 465.442 184.969 469.88 203.034 472.452C238.119 478.102 273.881 478.102 308.966 472.452C327.031 469.88 344.781 465.442 361.931 459.211C366.433 457.622 370.847 455.857 375.172 453.826C388.67 447.671 401.457 440.064 413.308 431.139C413.837 430.698 414.367 430.345 414.897 429.903C422.179 424.344 428.998 418.204 435.288 411.542C439.734 406.88 443.863 401.925 447.647 396.712C452.179 389.164 459.402 383.612 467.862 381.175C476.605 379.676 485.486 379.143 494.345 379.586C504.083 379.615 511.971 387.503 512 397.241V397.241Z" fill="#B59283"/>
<path d="M512 308.965C511.971 318.704 504.083 326.592 494.345 326.621H465.302C454.245 326 443.259 328.739 433.788 334.477C426.737 339.636 420.387 345.69 414.897 352.485C411.989 355.828 409.278 359.335 406.775 362.99C395.018 379.059 379.659 392.15 361.931 401.214C358.841 402.979 355.84 404.392 353.103 405.716C338.974 411.841 324.153 416.228 308.966 418.781C273.963 425.372 238.037 425.372 203.034 418.781C187.847 416.228 173.026 411.841 158.897 405.716C156.16 404.392 153.159 402.979 150.069 401.214C132.341 392.15 116.982 379.059 105.225 362.99C102.722 359.335 100.011 355.828 97.1034 352.485C91.6131 345.69 85.2629 339.636 78.2124 334.477C68.7406 328.739 57.7548 326 46.6979 326.621H17.6552C7.90449 326.621 0 318.716 0 308.965C0 299.215 7.90449 291.31 17.6552 291.31H46.6979C64.9527 290.612 82.9808 295.543 98.3393 305.434C108.8 312.989 118.158 321.961 126.146 332.094C152.629 372.348 207.183 388.414 256 388.414C305.346 388.414 358.93 372.524 385.854 332.094C393.842 321.961 403.2 312.989 413.661 305.434C429.019 295.543 447.047 290.612 465.302 291.31H494.345C504.083 291.339 511.971 299.227 512 308.965Z" fill="#B59283"/>
<path d="M97.1035 352.486V431.051C86.4292 423.733 77.1595 414.553 69.7379 403.95C60.5573 390.091 54.5545 384.088 44.1379 381.528V326.621H46.6979C57.7548 326 68.7407 328.739 78.2124 334.477C85.263 339.636 91.6131 345.69 97.1035 352.486Z" fill="#B59283" fill-opacity="0.79"/>
<path d="M150.069 401.214V459.211C145.567 457.622 141.153 455.857 136.828 453.826C122.876 447.546 109.571 439.918 97.1035 431.051V352.486C100.011 355.828 102.722 359.335 105.225 362.99C116.982 379.059 132.341 392.15 150.069 401.214Z" fill="#B59283"/>
<path d="M203.034 418.781V472.452C184.969 469.88 167.219 465.442 150.069 459.211V401.214C153.159 402.979 156.16 404.392 158.897 405.716C173.026 411.841 187.847 416.228 203.034 418.781V418.781Z" fill="#B59283" fill-opacity="0.79"/>
<path d="M256 423.724V476.69C238.263 476.623 220.557 475.206 203.034 472.452V418.781C220.505 422.017 238.232 423.671 256 423.724V423.724Z" fill="#B59283"/>
<path d="M308.966 418.781V472.452C291.443 475.206 273.737 476.623 256 476.69V423.724C273.768 423.671 291.495 422.017 308.966 418.781V418.781Z" fill="#B59283" fill-opacity="0.79"/>
<path d="M361.931 401.214V459.211C344.781 465.442 327.031 469.88 308.966 472.452V418.781C324.153 416.228 338.974 411.841 353.103 405.716C355.84 404.392 358.841 402.979 361.931 401.214V401.214Z" fill="#B59283"/>
<path d="M414.897 352.486V429.903C414.367 430.345 413.837 430.698 413.308 431.139C401.457 440.064 388.67 447.671 375.172 453.826C370.847 455.857 366.433 457.622 361.931 459.211V401.214C379.659 392.15 395.018 379.059 406.775 362.99C409.278 359.335 411.989 355.828 414.897 352.486V352.486Z" fill="#B59283" fill-opacity="0.79"/>
<path d="M467.862 326.621V381.175C459.402 383.613 452.179 389.164 447.647 396.712C443.863 401.925 439.734 406.88 435.288 411.542C428.998 418.204 422.179 424.344 414.897 429.903V352.486C420.387 345.69 426.737 339.636 433.788 334.477C443.259 328.739 454.245 326 465.302 326.621H467.862Z" fill="#B59283"/>
<path d="M219.439 203.885C234.133 181.441 232.813 154.584 216.491 143.897C200.168 133.21 175.024 142.741 160.33 165.185C145.635 187.628 146.955 214.486 163.278 225.172C179.601 235.859 204.745 226.328 219.439 203.885Z" fill="url(#paint2_linear)"/>
<defs>
<linearGradient id="paint0_linear" x1="106" y1="179" x2="406" y2="238" gradientUnits="userSpaceOnUse">
<stop stop-color="#B59283"/>
<stop offset="1" stop-color="#FDE9CC" stop-opacity="0.69"/>
</linearGradient>
<linearGradient id="paint1_linear" x1="276.276" y1="91.2773" x2="276.276" y2="388.414" gradientUnits="userSpaceOnUse">
<stop stop-color="#B59283"/>
<stop offset="1" stop-color="#B59283" stop-opacity="0.62"/>
</linearGradient>
<linearGradient id="paint2_linear" x1="160.33" y1="165.185" x2="219.439" y2="203.885" gradientUnits="userSpaceOnUse">
<stop stop-color="#FDE9CC" stop-opacity="0.9"/>
<stop offset="1" stop-color="#FDE9CC" stop-opacity="0.49"/>
</linearGradient>
</defs>
</svg>
