<svg width="511" height="511" viewBox="0 0 511 511" fill="none" xmlns="http://www.w3.org/2000/svg">
<g clip-path="url(#clip0)">
<g filter="url(#filter0_i)">
<path d="M494.307 415.734C505.137 426.568 505.137 444.147 494.307 454.977C483.473 465.811 465.906 465.811 455.063 454.977C454.779 454.697 454.498 454.392 454.206 454.081C440.506 439.219 420.849 431.293 400.756 433.574C344.159 440.006 287.559 442.7 230.963 441.663H230.951C183.703 440.802 136.456 437.332 89.2045 431.274C77.879 429.819 66.7523 435.32 61.0993 445.246C58.8888 449.121 56.4132 452.505 53.9414 454.977C43.1071 465.811 25.5399 465.811 14.7056 454.977C3.86354 444.147 3.86354 426.568 14.7056 415.734C16.9395 413.504 19.9181 411.274 23.3294 409.235C33.345 403.246 38.5457 391.566 36.4639 380.077C21.5126 297.562 21.5126 215.036 36.4639 132.514C38.5457 121.032 33.345 109.352 23.3294 103.368C19.9181 101.317 16.9395 99.0948 14.7056 96.8648C3.86354 86.0227 3.86354 68.4555 14.7056 57.6212C25.5399 46.7791 43.1071 46.7791 53.9414 57.6212C56.4132 60.0852 58.8888 63.4653 61.0993 67.3522C66.7523 77.2781 77.879 82.7791 89.2045 81.3249C113.567 78.1982 137.918 75.7654 162.269 74.0188C248.117 67.859 333.953 70.3035 419.797 81.3249C431.134 82.7791 442.253 77.2781 447.913 67.3522C450.124 63.477 452.6 60.0852 455.063 57.6212C465.906 46.7791 483.473 46.7791 494.307 57.6212C505.137 68.4555 505.137 86.0227 494.307 96.8648C492.073 99.0948 489.095 101.317 485.683 103.368C475.668 109.352 470.459 121.032 472.537 132.514C487.5 215.036 487.5 297.562 472.537 380.077C470.459 391.566 475.668 403.246 485.683 409.235C489.095 411.274 492.073 413.504 494.307 415.734V415.734Z" fill="url(#paint0_linear)"/>
</g>
<path d="M230.951 441.663C183.703 440.802 136.456 437.332 89.2045 431.274C77.879 429.819 66.7523 435.32 61.0993 445.246C58.8888 449.121 56.4132 452.505 53.9414 454.977C43.1071 465.811 25.5399 465.811 14.7056 454.977C3.86354 444.147 3.86354 426.568 14.7056 415.734C16.9395 413.504 19.9181 411.274 23.3294 409.235C33.345 403.246 38.5457 391.566 36.4639 380.077C21.5126 297.562 21.5126 215.036 36.4639 132.514C38.5457 121.032 33.345 109.352 23.3294 103.368C19.9181 101.317 16.9395 99.0948 14.7056 96.8648C3.86354 86.0227 3.86354 68.4555 14.7056 57.6212C25.5399 46.7791 43.1071 46.7791 53.9414 57.6212C56.4132 60.0852 58.8888 63.4653 61.0993 67.3522C66.7523 77.2781 77.879 82.7791 89.2045 81.3249C113.567 78.1982 137.918 75.7654 162.269 74.0188C89.2045 81.3249 61.2397 397.695 230.951 441.663V441.663Z" fill="#B59283" fill-opacity="0.56"/>
<path d="M241.898 191.882C230.491 183.044 236.752 164.642 251.181 164.6H251.699C317.091 164.6 370.105 202.295 370.105 248.81C370.105 295.309 317.091 333.009 251.699 333.009C251.528 333.009 251.352 333.009 251.181 333.009C236.748 332.962 230.491 314.564 241.898 305.726C261.243 290.74 273.052 270.751 273.052 248.81C273.052 226.857 261.243 206.869 241.898 191.882V191.882Z" fill="#B59283" fill-opacity="0.86"/>
<path d="M90.8224 423.854C90.6626 423.827 90.4989 423.804 90.3117 423.78C90.2649 423.776 90.2143 423.769 90.1675 423.761C75.6997 421.905 61.7114 428.868 54.5184 441.492C52.6393 444.79 50.534 447.675 48.5847 449.624C40.7212 457.488 27.9259 457.488 20.0584 449.62C16.2456 445.812 14.1442 440.747 14.1442 435.355C14.1442 429.968 16.2456 424.903 20.0623 421.09C21.8206 419.332 24.2924 417.48 27.2124 415.734C39.844 408.182 46.5535 393.313 43.9142 378.724C29.1929 297.492 29.1929 215.106 43.9142 133.863C46.5574 119.286 39.844 104.416 27.228 96.8726C24.2768 95.1026 21.7972 93.2469 20.0584 91.5081C16.2456 87.6952 14.1442 82.627 14.1442 77.2391C14.1442 71.8512 16.2456 66.7869 20.0623 62.974C23.8713 59.1612 28.9356 57.0637 34.3235 57.0637C39.7114 57.0637 44.7757 59.1612 48.5964 62.9857C50.5379 64.9194 52.6393 67.8005 54.5184 71.1027C61.7153 83.7342 75.7114 90.6933 90.1714 88.8375C199.212 74.8337 309.789 74.8337 418.834 88.8375C433.305 90.6933 447.29 83.7303 454.49 71.1066C456.377 67.7966 458.483 64.9078 460.416 62.9779C464.229 59.1612 469.297 57.0637 474.689 57.0637C480.077 57.0637 485.141 59.1612 488.95 62.9779C496.814 70.8376 496.814 83.6407 488.95 91.512C487.215 93.2469 484.736 95.1026 481.796 96.8687C469.161 104.42 462.447 119.29 465.091 133.867C466.72 142.834 468.206 152.101 469.512 161.399C470.093 165.543 473.933 168.428 478.065 167.847C482.206 167.266 485.091 163.438 484.51 159.297C483.176 149.793 481.656 140.327 479.991 131.165C478.467 122.759 482.315 114.202 489.582 109.859C493.633 107.422 497.024 104.853 499.66 102.218C513.426 88.4399 513.426 66.0306 499.66 52.2684C492.993 45.5939 484.124 41.9175 474.689 41.9175C465.255 41.9175 456.381 45.5939 449.707 52.2684C446.806 55.169 443.913 59.091 441.336 63.6017C437.188 70.8766 429.106 74.8882 420.763 73.8161C310.44 59.6446 198.561 59.6446 88.2416 73.8161C79.8907 74.8882 71.8205 70.8805 67.6802 63.6095C65.111 59.0949 62.2065 55.1651 59.2981 52.2684C52.6276 45.5939 43.7582 41.9175 34.3235 41.9175C24.8888 41.9175 16.0195 45.5939 9.35671 52.2645C2.67836 58.9351 -0.998047 67.8044 -0.998047 77.2391C-0.998047 86.6738 2.67836 95.5432 9.35281 102.218C11.9883 104.853 15.3801 107.426 19.4425 109.867C26.69 114.198 30.5341 122.756 29.0136 131.165C13.9688 214.202 13.9688 298.4 29.0136 381.426C30.538 389.839 26.69 398.404 19.4425 402.736C15.4113 405.145 12.0195 407.718 9.35671 410.381C2.67836 417.047 -0.998047 425.921 -0.998047 435.355C-0.998047 444.794 2.67836 453.663 9.35281 460.334C16.2378 467.219 25.2787 470.657 34.3235 470.657C43.3683 470.657 52.4093 467.219 59.2942 460.334C62.2104 457.418 65.1071 453.496 67.6763 448.993C71.8088 441.741 79.8439 437.737 88.1714 438.775C88.2649 438.79 88.3624 438.802 88.4716 438.813C92.5495 439.422 96.3663 436.65 97.0486 432.568C97.7347 428.443 94.9472 424.541 90.8224 423.854V423.854Z" fill="#B59283"/>
<path d="M499.66 410.381C496.993 407.714 493.598 405.145 489.57 402.736C482.315 398.4 478.467 389.835 479.991 381.43C491.527 317.82 494.26 253.293 488.112 189.644C487.711 185.485 484.007 182.436 479.847 182.837C475.683 183.239 472.635 186.939 473.04 191.102C479.052 253.364 476.377 316.486 465.087 378.728C462.447 393.309 469.161 408.182 481.8 415.734C484.72 417.48 487.192 419.332 488.95 421.09C492.759 424.899 494.861 429.968 494.861 435.359C494.861 440.751 492.759 445.815 488.95 449.624C481.091 457.492 468.284 457.488 460.412 449.624C460.206 449.418 460.003 449.199 459.773 448.95C444.253 432.116 421.859 423.562 399.902 426.053C307.228 436.587 213.204 437.005 120.44 427.289C116.273 426.853 112.557 429.874 112.125 434.03C111.688 438.19 114.705 441.917 118.865 442.35C212.721 452.178 307.847 451.757 401.609 441.102C418.798 439.149 436.381 445.921 448.639 459.215C448.65 459.227 448.717 459.301 448.732 459.316C449.064 459.671 449.387 460.014 449.711 460.338C456.6 467.219 465.644 470.661 474.689 470.657C483.734 470.657 492.779 467.219 499.66 460.334C506.327 453.663 510.003 444.794 510.003 435.359C510.003 425.921 506.33 417.051 499.66 410.381V410.381Z" fill="#B59283"/>
<path d="M68.2689 105.8C64.265 107.009 61.9999 111.235 63.2085 115.239C66.2182 125.212 68.8693 135.348 71.1968 145.621C53.7387 180.354 44.8654 216.674 44.8654 253.617C44.8654 290.553 53.7387 326.872 71.1968 361.613C68.8693 371.886 66.2182 382.022 63.2085 391.995C61.9999 395.999 64.265 400.225 68.2689 401.433C68.9979 401.652 69.7348 401.757 70.4599 401.757C73.7114 401.757 76.7172 399.644 77.7075 396.373C91.2786 351.391 98.1597 303.363 98.1597 253.617C98.1597 203.874 91.2786 155.843 77.7075 110.865C76.4989 106.861 72.2728 104.592 68.2689 105.8V105.8ZM60.0116 253.617C60.0116 225.644 65.4775 198.019 76.2416 171.212C80.7367 197.933 83.0174 225.481 83.0174 253.617C83.0174 281.753 80.7367 309.301 76.2416 336.022C65.4775 309.211 60.0116 281.586 60.0116 253.617Z" fill="#B59283"/>
</g>
<defs>
<filter id="filter0_i" x="6.57407" y="49.4897" width="495.856" height="417.613" filterUnits="userSpaceOnUse" color-interpolation-filters="sRGB">
<feFlood flood-opacity="0" result="BackgroundImageFix"/>
<feBlend mode="normal" in="SourceGraphic" in2="BackgroundImageFix" result="shape"/>
<feColorMatrix in="SourceAlpha" type="matrix" values="0 0 0 0 0 0 0 0 0 0 0 0 0 0 0 0 0 0 127 0" result="hardAlpha"/>
<feOffset dy="4"/>
<feGaussianBlur stdDeviation="2"/>
<feComposite in2="hardAlpha" operator="arithmetic" k2="-1" k3="1"/>
<feColorMatrix type="matrix" values="0 0 0 0 0 0 0 0 0 0 0 0 0 0 0 0 0 0 0.25 0"/>
<feBlend mode="normal" in2="shape" result="effect1_innerShadow"/>
</filter>
<linearGradient id="paint0_linear" x1="254.502" y1="49.4897" x2="254.502" y2="463.103" gradientUnits="userSpaceOnUse">
<stop stop-color="#B59283" stop-opacity="0.86"/>
<stop offset="1" stop-color="#FDE9CC"/>
</linearGradient>
<clipPath id="clip0">
<rect width="511" height="511" fill="white"/>
</clipPath>
</defs>
</svg>
