<svg width="1078" height="813" viewBox="0 0 1078 813" fill="none" xmlns="http://www.w3.org/2000/svg">
<path opacity="0.9" d="M663.814 111.323C617.564 150.583 557.574 148.043 505.004 127.613C452.434 107.183 404.144 70.823 352.924 44.973C309.984 23.303 264.924 9.07299 219.314 2.74299C154.034 -6.25701 81.1344 4.743 35.6544 68.183C-14.9956 138.863 -11.1056 266.343 43.6544 331.183C71.5244 364.183 108.014 380.383 139.834 406.183C171.654 431.983 201.114 474.743 198.404 524.473C195.894 570.473 166.724 605.853 136.534 628.013C113.204 645.153 84.4744 663.863 81.6644 699.343C78.9444 733.683 103.104 760.583 126.174 775.883C201.434 825.803 294.174 825.323 369.174 774.623C395.924 756.543 420.514 732.493 448.564 718.393C522.214 681.393 603.374 718.643 681.364 732.263C747.364 743.793 815.054 737.823 879.364 714.793C917.984 700.963 956.754 679.793 983.884 640.423C1003.45 612.023 1015.64 576.083 1027.08 540.583C1039.28 502.723 1051.01 464.6 1062.27 426.213C1069.02 403.213 1075.67 379.673 1077.42 355.023C1080.58 310.343 1067.26 266.183 1049.12 228.473C1006.02 138.963 933.484 76.013 854.924 60.013C776.364 44.013 693.254 75.263 632.324 143.603" fill="url(#paint0_linear)"/>
<defs>
<linearGradient id="paint0_linear" x1="538.945" y1="0" x2="538.945" y2="812.988" gradientUnits="userSpaceOnUse">
<stop stop-color="#FF5F6D"/>
<stop offset="1" stop-color="#FFC371"/>
</linearGradient>
</defs>
</svg>
